/* XPM */
static char * geohpem_xpm[] = {
"16 16 3 1",
"  c None",
". c #1f2937",
"+ c #3b82f6",
"................",
"...++++++.......",
"...+....+.......",
"...+....+.......",
"...++++++.......",
"...+............",
"...+............",
"...........+....",
"...........+....",
".......+++++....",
".......+........",
".......+........",
".......+++++....",
"................",
"................",
"................"
};
